<?xml version="1.0" encoding="UTF-8" standalone="no"?>
<!-- Created with Inkscape (http://www.inkscape.org/) -->

<svg
   width="52.985668mm"
   height="34.395725mm"
   viewBox="0 0 52.985668 34.395725"
   version="1.1"
   id="svg76"
   sodipodi:docname="logo-white.svg"
   inkscape:version="1.1.2 (0a00cf5339, 2022-02-04)"
   xmlns:inkscape="http://www.inkscape.org/namespaces/inkscape"
   xmlns:sodipodi="http://sodipodi.sourceforge.net/DTD/sodipodi-0.dtd"
   xmlns="http://www.w3.org/2000/svg"
   xmlns:svg="http://www.w3.org/2000/svg">
  <sodipodi:namedview
     id="namedview78"
     pagecolor="#ffffff"
     bordercolor="#000000"
     borderopacity="0.25"
     inkscape:pageshadow="2"
     inkscape:pageopacity="0.0"
     inkscape:pagecheckerboard="0"
     inkscape:document-units="mm"
     showgrid="false"
     inkscape:zoom="0.64052329"
     inkscape:cx="349.71406"
     inkscape:cy="258.38249"
     inkscape:window-width="1846"
     inkscape:window-height="1136"
     inkscape:window-x="0"
     inkscape:window-y="0"
     inkscape:window-maximized="1"
     inkscape:current-layer="layer1" />
  <defs
     id="defs73" />
  <g
     inkscape:label="Layer 1"
     inkscape:groupmode="layer"
     id="layer1"
     transform="translate(-54.05654,-80.287536)">
    <path
       style="font-variation-settings:normal;opacity:1;vector-effect:none;fill:#ffffff;fill-opacity:1;stroke-width:0.209952;stroke-linecap:butt;stroke-linejoin:miter;stroke-miterlimit:4;stroke-dasharray:none;stroke-dashoffset:0;stroke-opacity:1;-inkscape-stroke:none;stop-color:#000000;stop-opacity:1"
       d="m 54.05654,97.495926 v -17.18877 l 8.31394,10e-4 c 7.61026,0.001 8.4644,0.0375 10.09176,0.42697 5.47001,1.30911 9.47693,5.03089 11.29132,10.48777 0.3468,1.04303 0.63054,2.10211 0.63054,2.35355 v 0.4572 l 6.22237,-0.0669 6.22238,-0.0669 0.99505,-0.58936 c 1.23319,-0.7304 1.65576,-1.36088 1.7791,-2.65434 0.16646,-1.74686 -1.09266,-3.52081 -2.96749,-4.18053 -0.91296,-0.32125 -1.83753,-0.37353 -6.60421,-0.37353 h -5.54262 l -0.10457,2.00213 -0.10459,2.00212 -0.37223,-0.91559 c -0.86821,-2.13559 -2.69147,-4.52953 -4.70087,-6.17229 -1.26227,-1.03193 -1.32425,-1.12546 -1.26444,-1.908 l 0.0628,-0.82292 9.55094,0.0132 c 8.77378,0.0132 9.68128,0.047 11.15312,0.42635 2.04066,0.52589 3.50304,1.31776 4.77254,2.58423 2.3906,2.38502 3.25362,6.7791 1.94926,9.92474 -0.41697,1.00551 -1.9149,2.60645 -2.92423,3.12529 l -0.825,0.4241 1.12934,0.62202 c 1.49711,0.82461 2.32163,1.66032 3.11187,3.154274 0.74744,1.41305 1.12165,2.93581 1.11958,4.50691 -0.002,1.23914 -0.23733,2.50835 -0.70859,3.77752 -0.97048,2.61364 -3.75438,4.65452 -7.37632,5.40771 -1.71838,0.35731 -2.9199,0.39942 -11.4751,0.40187 l -9.55576,0.002 0.0119,-0.86662 c 0.009,-0.62746 0.13486,-0.96107 0.45749,-1.20885 0.24509,-0.18825 1.24734,-1.14967 2.22722,-2.13655 1.37968,-1.38957 2.00331,-2.22225 2.7644,-3.69113 l 0.98282,-1.89676 0.007,1.96639 0.007,1.96633 6.01322,-0.0779 c 5.67654,-0.0735 6.08073,-0.10505 7.21912,-0.56015 2.73897,-1.09532 3.69802,-2.9607 2.68165,-5.21586 -0.45436,-1.00816 -1.31648,-1.7263 -3.05977,-2.54885 l -1.24607,-0.587944 h -5.6139 -5.6139 l -0.58158,2.322394 c -1.56166,6.23604 -5.19958,10.14932 -11.09315,11.93282 -1.49755,0.45317 -1.96455,0.47815 -10.30091,0.55129 l -8.73225,0.0769 z m 15.93133,10.755624 c 2.08211,-0.40145 3.61542,-1.12756 4.95417,-2.34615 2.1583,-1.96459 3.15454,-4.26985 3.32234,-7.687674 0.28512,-5.80754 -2.50918,-10.15516 -7.38647,-11.49247 -1.35801,-0.37236 -8.24775,-0.68227 -9.57794,-0.43081 l -0.75961,0.14368 v 11.05486 11.054854 h 3.95557 c 2.52958,0 4.50941,-0.1066 5.49194,-0.2962 z"
       id="path1615-3-27"
       inkscape:connector-curvature="0"
       sodipodi:nodetypes="cccccsccccccscccccccccccccccsccccccccccccccsccccccccccscccccscc" />
  </g>
</svg>
